<svg width="16" height="16" viewBox="0 0 16 16" fill="none" xmlns="http://www.w3.org/2000/svg">
<path d="M7.99374 12.9992H2.74495C2.33753 12.9976 1.94349 12.8619 1.63093 12.6157C1.31836 12.3694 1.10691 12.028 1.0331 11.6504C1.01251 11.5408 1.00187 11.4297 1.00131 11.3183C0.999564 9.10186 0.999564 6.88539 1.00131 4.66892C0.998532 4.28645 1.13625 3.91486 1.39111 3.61718C1.64596 3.31949 2.00225 3.11405 2.39953 3.03571C2.50835 3.01373 2.61928 3.00231 2.73058 3.00164C6.23993 3 9.75001 2.99959 13.2608 3.00041C13.6572 3.00377 14.0406 3.13397 14.3482 3.36964C14.6557 3.60531 14.8692 3.93246 14.9535 4.29746C14.9824 4.43258 14.997 4.57007 14.9971 4.70791C14.9997 6.90222 15.0005 9.0968 14.9997 11.2917C14.9997 11.7592 14.8416 12.1663 14.4953 12.5033C14.2191 12.7772 13.8485 12.9495 13.4499 12.9893C13.3775 12.9967 13.3048 13.0003 13.2321 13L7.99374 12.9992ZM6.29496 7.99158L2.50886 12.1126V12.1298C2.59795 12.1472 2.68817 12.159 2.77893 12.1651C3.2193 12.1688 3.65968 12.1651 4.10005 12.1651H13.2038C13.3026 12.1657 13.4007 12.1483 13.4926 12.1138C12.2291 10.7393 10.9669 9.36524 9.70602 7.99158L9.66246 8.02564L8.29211 9.14455C8.21298 9.21298 8.10966 9.25123 8.00225 9.25183C7.89485 9.25244 7.79104 9.21537 7.71104 9.14784C7.3649 8.86599 7.01905 8.58359 6.67348 8.30065L6.29496 7.99158ZM2.59946 3.8595V3.87345L8.00071 8.28341C9.8049 6.80987 11.6053 5.33988 13.402 3.87345L13.3998 3.85827C13.336 3.84691 13.2716 3.83937 13.2068 3.83569C10.3079 3.83569 7.40933 3.83569 4.51124 3.83569C3.93497 3.83569 3.35869 3.83569 2.78241 3.83569C2.72093 3.83976 2.65981 3.84771 2.59946 3.8595ZM1.90253 11.4833H1.91908C3.1544 10.1406 4.39059 8.79525 5.62765 7.44731L1.93041 4.42921C1.89611 4.51165 1.87796 4.59926 1.87683 4.6878C1.87683 6.89196 1.87683 9.09612 1.87683 11.3003C1.88112 11.3618 1.88971 11.4229 1.90253 11.4833ZM10.3707 7.44813L14.0806 11.4862H14.0967C14.1092 11.4197 14.1175 11.3525 14.1215 11.2851C14.1215 9.09598 14.1215 6.90687 14.1215 4.71777C14.1232 4.69038 14.1223 4.66291 14.1189 4.63567C14.1072 4.56918 14.0915 4.50351 14.0754 4.42716L10.3707 7.44813Z" fill="black"/>
</svg>
